<mxfile host="app.diagrams.net" modified="2022-07-06T14:54:58.101Z" agent="5.0 (Macintosh; Intel Mac OS X 10_15_7) AppleWebKit/537.36 (KHTML, like Gecko) Chrome/103.0.0.0 Safari/537.36" etag="eOHvJCpbmHlNOT4VtoeT" version="20.0.3" type="github">
  <diagram id="XkAaEBf53UmqDhi5dEmX" name="第 1 页">
    <mxGraphModel dx="1298" dy="663" grid="1" gridSize="10" guides="1" tooltips="1" connect="1" arrows="1" fold="1" page="1" pageScale="1" pageWidth="827" pageHeight="1169" math="0" shadow="0">
      <root>
        <mxCell id="0" />
        <mxCell id="1" parent="0" />
        <mxCell id="-2_FWKpAoTdLeDxeOx6k-1" value="stack" style="swimlane;fillColor=#dae8fc;strokeColor=#6c8ebf;" vertex="1" parent="1">
          <mxGeometry x="40" y="110" width="170" height="260" as="geometry" />
        </mxCell>
        <mxCell id="-2_FWKpAoTdLeDxeOx6k-2" value="ThreadLocal Ref" style="rounded=1;whiteSpace=wrap;html=1;fillColor=#dae8fc;strokeColor=#6c8ebf;" vertex="1" parent="-2_FWKpAoTdLeDxeOx6k-1">
          <mxGeometry x="20" y="60" width="120" height="60" as="geometry" />
        </mxCell>
        <mxCell id="-2_FWKpAoTdLeDxeOx6k-3" value="Current Thread Ref" style="rounded=1;whiteSpace=wrap;html=1;fillColor=#d5e8d4;strokeColor=#82b366;" vertex="1" parent="-2_FWKpAoTdLeDxeOx6k-1">
          <mxGeometry x="20" y="160" width="120" height="60" as="geometry" />
        </mxCell>
        <mxCell id="-2_FWKpAoTdLeDxeOx6k-4" value="Heap" style="swimlane;fillColor=#b0e3e6;strokeColor=#0e8088;" vertex="1" parent="1">
          <mxGeometry x="320" y="110" width="640" height="260" as="geometry" />
        </mxCell>
        <mxCell id="-2_FWKpAoTdLeDxeOx6k-5" value="ThreadLocal" style="rounded=1;whiteSpace=wrap;html=1;fillColor=#ffe6cc;strokeColor=#d79b00;" vertex="1" parent="-2_FWKpAoTdLeDxeOx6k-4">
          <mxGeometry x="60" y="50" width="120" height="60" as="geometry" />
        </mxCell>
        <mxCell id="-2_FWKpAoTdLeDxeOx6k-8" value="Current Thread" style="rounded=1;whiteSpace=wrap;html=1;fillColor=#ffe6cc;strokeColor=#d79b00;" vertex="1" parent="-2_FWKpAoTdLeDxeOx6k-4">
          <mxGeometry x="60" y="160" width="120" height="60" as="geometry" />
        </mxCell>
        <mxCell id="-2_FWKpAoTdLeDxeOx6k-15" value="Entry" style="swimlane;fontStyle=0;childLayout=stackLayout;horizontal=1;startSize=30;horizontalStack=0;resizeParent=1;resizeParentMax=0;resizeLast=0;collapsible=1;marginBottom=0;fillColor=#a0522d;fontColor=#ffffff;strokeColor=#6D1F00;" vertex="1" parent="-2_FWKpAoTdLeDxeOx6k-4">
          <mxGeometry x="410" y="70" width="170" height="90" as="geometry" />
        </mxCell>
        <mxCell id="-2_FWKpAoTdLeDxeOx6k-16" value="Key: ThreadLocal" style="text;strokeColor=#C73500;fillColor=#fa6800;align=left;verticalAlign=middle;spacingLeft=4;spacingRight=4;overflow=hidden;points=[[0,0.5],[1,0.5]];portConstraint=eastwest;rotatable=0;fontColor=#000000;" vertex="1" parent="-2_FWKpAoTdLeDxeOx6k-15">
          <mxGeometry y="30" width="170" height="30" as="geometry" />
        </mxCell>
        <mxCell id="-2_FWKpAoTdLeDxeOx6k-18" value="Value:Object" style="text;strokeColor=#C73500;fillColor=#fa6800;align=left;verticalAlign=middle;spacingLeft=4;spacingRight=4;overflow=hidden;points=[[0,0.5],[1,0.5]];portConstraint=eastwest;rotatable=0;fontColor=#000000;" vertex="1" parent="-2_FWKpAoTdLeDxeOx6k-15">
          <mxGeometry y="60" width="170" height="30" as="geometry" />
        </mxCell>
        <mxCell id="-2_FWKpAoTdLeDxeOx6k-21" style="edgeStyle=orthogonalEdgeStyle;rounded=0;orthogonalLoop=1;jettySize=auto;html=1;exitX=0;exitY=0.5;exitDx=0;exitDy=0;entryX=1;entryY=0.5;entryDx=0;entryDy=0;dashed=1;" edge="1" parent="-2_FWKpAoTdLeDxeOx6k-4" source="-2_FWKpAoTdLeDxeOx6k-16" target="-2_FWKpAoTdLeDxeOx6k-5">
          <mxGeometry relative="1" as="geometry" />
        </mxCell>
        <mxCell id="-2_FWKpAoTdLeDxeOx6k-13" value="ThreadLocalMap" style="whiteSpace=wrap;html=1;fillColor=#ffe6cc;strokeColor=#d79b00;rounded=1;" vertex="1" parent="1">
          <mxGeometry x="580" y="270" width="120" height="60" as="geometry" />
        </mxCell>
        <mxCell id="-2_FWKpAoTdLeDxeOx6k-14" value="" style="edgeStyle=orthogonalEdgeStyle;rounded=0;orthogonalLoop=1;jettySize=auto;html=1;" edge="1" parent="1" source="-2_FWKpAoTdLeDxeOx6k-8" target="-2_FWKpAoTdLeDxeOx6k-13">
          <mxGeometry relative="1" as="geometry" />
        </mxCell>
        <mxCell id="-2_FWKpAoTdLeDxeOx6k-19" value="" style="endArrow=classic;html=1;rounded=0;exitX=1;exitY=0.5;exitDx=0;exitDy=0;entryX=0;entryY=0.5;entryDx=0;entryDy=0;" edge="1" parent="1" source="-2_FWKpAoTdLeDxeOx6k-3" target="-2_FWKpAoTdLeDxeOx6k-8">
          <mxGeometry width="50" height="50" relative="1" as="geometry">
            <mxPoint x="390" y="370" as="sourcePoint" />
            <mxPoint x="440" y="320" as="targetPoint" />
          </mxGeometry>
        </mxCell>
        <mxCell id="-2_FWKpAoTdLeDxeOx6k-20" value="" style="endArrow=classic;html=1;rounded=0;entryX=1;entryY=0.25;entryDx=0;entryDy=0;exitX=1;exitY=0.5;exitDx=0;exitDy=0;" edge="1" parent="1" source="-2_FWKpAoTdLeDxeOx6k-13" target="-2_FWKpAoTdLeDxeOx6k-15">
          <mxGeometry width="50" height="50" relative="1" as="geometry">
            <mxPoint x="390" y="370" as="sourcePoint" />
            <mxPoint x="440" y="320" as="targetPoint" />
            <Array as="points">
              <mxPoint x="920" y="300" />
              <mxPoint x="920" y="203" />
            </Array>
          </mxGeometry>
        </mxCell>
        <mxCell id="-2_FWKpAoTdLeDxeOx6k-22" style="edgeStyle=orthogonalEdgeStyle;rounded=0;orthogonalLoop=1;jettySize=auto;html=1;exitX=1;exitY=0.5;exitDx=0;exitDy=0;entryX=0;entryY=0.5;entryDx=0;entryDy=0;" edge="1" parent="1" source="-2_FWKpAoTdLeDxeOx6k-2" target="-2_FWKpAoTdLeDxeOx6k-5">
          <mxGeometry relative="1" as="geometry" />
        </mxCell>
      </root>
    </mxGraphModel>
  </diagram>
</mxfile>